<?xml version="1.0" encoding="UTF-8"?>
<svg id="Layer_2" data-name="Layer 2" xmlns="http://www.w3.org/2000/svg" viewBox="0 0 89.4 59.51">
  <defs>
    <style>
      .cls-1 {
        fill: #80a874;
      }

      .cls-2 {
        fill: #f6e4d1;
        font-family: CascadiaCode-BoldItalic, 'Cascadia Code';
        font-size: 14px;
        font-style: italic;
        font-variation-settings: 'wght' 700;
        font-weight: 700;
      }
    </style>
  </defs>
  <g id="Layer_1-2" data-name="Layer 1">
    <g>
      <g>
        <path class="cls-1" d="M8.51,3.16c-.94,13.09,.59,26.59-2.78,39.41h2.89c-1.37-5.85-.97-12.11,.06-17.98s2.52-11.87,5.63-16.87c.72-1.16,1.54-2.24,2.49-3.21,.28-.29,1.44-1.66,1.9-1.51s.88,1.41,1.03,1.83c1,2.83,.23,5.91-1.23,8.42s-3.77,5.06-6.18,6.93c-1.83,1.42-3.76,2.64-5.27,4.42-1.22,1.43-2.37,2.93-3.49,4.45-.85,1.16-2.49,2.95-1.26,4.38s3.38-.67,2.12-2.12c.22,.25,.53,1.19,.34,1.35,.08-.07,.15-.28,.21-.37,.21-.32,.42-.65,.64-.96,.59-.84,1.21-1.65,1.84-2.45,1.08-1.38,2.14-2.76,3.47-3.9,1.02-.88,2.15-1.6,3.22-2.42,1.45-1.12,2.75-2.4,3.97-3.76,2.17-2.43,4.1-5.27,4.77-8.5,.63-3.02,.27-6.48-1.68-8.98-2.45-3.13-5.87,.19-7.61,2.31-4.04,4.92-5.97,11.42-7.29,17.54-1.55,7.22-2.28,14.97-.58,22.23,.34,1.45,2.52,1.4,2.89,0,3.44-13.09,1.92-26.85,2.89-40.21,.14-1.93-2.86-1.92-3,0h0Z"/>
        <path class="cls-1" d="M21.42,19.67c-1.04,.69-2.22,1.13-3.22,1.89-1.34,1.02-2.43,2.56-3.13,4.08-1.45,3.14,.25,7.2,3.77,7.97,1.1,.24,2.95-.07,3.81,.78,1.33,1.31,.91,3.66,.09,5.1s-2.66,2.17-4.16,2.67c-.3,.1-.71,.14-.98,.3l-.31,.09,.87,.66s.14-.42,.15-.44c.46-.79,.74-1.73,1.17-2.55,3.53-6.74,9.56-12.14,16.39-15.4,1.63-.78,3.34-1.45,5.09-1.91,1.19-.31,3.27-.79,4.2,.33,1.15,1.39-.25,4.24-.9,5.56-.94,1.89-2.07,3.69-3.08,5.54-4.38,7.99-8.31,16.25-15.05,22.57-1.41,1.32,.71,3.44,2.12,2.12,6.88-6.45,10.95-14.84,15.42-22.99,1.15-2.1,2.47-4.14,3.47-6.33,.9-1.96,1.77-4.33,1.25-6.51-1.08-4.56-6.44-3.83-9.79-2.71-8.14,2.74-15.46,8.39-20.16,15.58-1.18,1.8-2.18,3.72-2.95,5.73-.72,1.87,.04,4.15,2.43,3.68,4.02-.8,7.73-3.16,8.48-7.42,.38-2.13-.29-4.84-2.09-6.19-1.61-1.2-3.51-.57-5.22-1.3-.85-.37-1.57-1.47-1.61-2.38-.05-1.13,.84-2.31,1.5-3.16,1.05-1.36,2.58-1.83,3.97-2.76,1.6-1.06,.1-3.66-1.51-2.59h0Z"/>
        <path class="cls-1" d="M55.18,30.47c-3.09,.39-6.6,1.68-8.48,4.31s-3.17,6.74-.26,9.29c1.82,1.6,4.28,1.4,6.54,1.23,4.14-.3,5.15-4.58,4.93-8.02-.55-8.54-2.38-17.45,2.06-25.32,1.8-3.19,4.35-5.96,7.45-7.94,.33-.21,.77-.36,1.08-.58l-.13-.1c-.15-.17-.19-.12-.14,.15-.07,.11-.09,.42-.12,.54-.26,1.14-.54,2.27-.82,3.4-.55,2.19-1.14,4.37-1.77,6.53-2.8,9.67-6.36,19.1-10.64,28.21-.69,1.47,1.09,3.1,2.36,1.82,1.38-1.4,2.75-2.79,4.13-4.19,1.2-1.21,2.37-2.77,3.81-3.7,.38-.25,1.15-.65,1.6-.29,.48,.38,.08,1.48-.06,1.99-.43,1.54-1.1,2.99-1.81,4.42-.85,1.72,1.73,3.25,2.59,1.51,1.47-2.97,5.01-10.43-.83-11-2.24-.22-3.89,1.38-5.35,2.86-2.06,2.09-4.13,4.19-6.19,6.29l2.36,1.82c3.69-7.86,6.89-15.96,9.52-24.24,1.29-4.08,2.45-8.2,3.47-12.35,.39-1.59,1.3-3.77,.42-5.34-.93-1.66-2.87-1.51-4.34-.71-6.33,3.44-10.84,10.45-12.04,17.45-.73,4.27-.49,8.59-.1,12.88,.2,2.17,.46,4.35,.55,6.53,.06,1.51-.01,4.04-1.94,4.39s-5.61,.42-5.35-2.41c.34-3.74,4.14-6,7.53-6.42,1.89-.24,1.91-3.24,0-3h0Z"/>
        <path class="cls-1" d="M46.78,34.52c-2,.5-4.12,.96-5.9,2.07-1.93,1.2-3.26,3.1-5.15,4.35-.46,.31-.95,.6-1.46,.82-.32,.14-.65,.23-.98,.32-.11,.02-.23,.05-.34,.08-.26-.03-.32-.02-.18,.05-.29-.26,.23-1.88,.34-2.23,.68-2.18,2.19-4.01,4.15-5.16,1.66-.98,.16-3.57-1.51-2.59-1.98,1.16-3.65,2.88-4.69,4.93-.94,1.84-1.97,4.7-.8,6.65,1.47,2.45,4.92,1.03,6.77-.14,1.07-.68,2.04-1.5,2.95-2.38,.61-.59,1.31-1.34,1.92-1.78,1.65-1.2,3.65-1.59,5.67-2.1,1.87-.47,1.08-3.36-.8-2.89h0Z"/>
        <path class="cls-1" d="M28.47,58.73c1.06-2.36,1.94-4.83,3.22-7.09,1.4-2.48,3.47-4.28,5.52-6.21,5.04-4.74,10.02-9.69,16.87-11.61,1.86-.52,1.07-3.42-.8-2.89-7.2,2.02-12.58,7.05-17.86,12.07-2.2,2.09-4.46,4.04-6.04,6.66-1.43,2.37-2.36,5.05-3.49,7.57-.79,1.75,1.8,3.27,2.59,1.51h0Z"/>
      </g>
      <circle class="cls-1" cx="78.34" cy="25.97" r="10.06"/>
      <text class="cls-2" transform="translate(70.04 30.49)"><tspan x="0" y="0">AI</tspan></text>
      <path class="cls-1" d="M74.6,42.96c-5.48,7.48-15.83,7.03-24.02,5.76-9.93-1.54-20.02-3.16-30.09-2.94-5.22,.12-10.24,1.38-14.75,4.04-.42,.25-.04,.89,.38,.65,9.1-5.37,20.04-4.17,30.11-3.02,5.29,.61,10.54,1.51,15.81,2.23,4.19,.58,8.51,.81,12.69,0s7.97-2.86,10.53-6.35c.29-.39-.36-.76-.65-.38h0Z"/>
      <path class="cls-1" d="M66.87,37.35s-.05,.38-.02,.19-.04,.24-.04,.22c-.04,.24-.09,.47-.14,.7-.12,.54-.27,1.08-.44,1.6-.31,.98-.55,1.68-1.16,2.52h2.59c-.1-.2-.08-.6,.05-.89,.19-.42,.67-.88,1.04-1.23,.94-.91,2.01-1.71,3.08-2.46,2.09-1.46,4.44-2.74,7.04-2.87,.81-.04,1.5-.66,1.5-1.5,0-.78-.69-1.54-1.5-1.5-3.44,.17-6.52,1.76-9.25,3.78-2.5,1.85-6.38,4.6-4.55,8.18,.56,1.09,1.98,.85,2.59,0,.69-.95,1.1-2.13,1.46-3.24s.63-2.32,.75-3.52c.08-.81-.75-1.5-1.5-1.5-.88,0-1.42,.69-1.5,1.5h0Z"/>
      <path class="cls-1" d="M16.71,43.57c-3.21-2.03-7.17-1.73-10.13,.61-1.51,1.2-2.55,2.58-3.16,4.42s-1.46,3.4-3.24,4.44c-.42,.24-.04,.89,.38,.65,1.23-.72,2.2-1.67,2.84-2.95,.37-.75,.6-1.54,.88-2.33,.37-1.05,.93-1.9,1.72-2.69,2.81-2.83,6.86-3.69,10.34-1.49,.41,.26,.79-.39,.38-.65h0Z"/>
      <path class="cls-1" d="M18.05,49.16c-.77,1.2-1.68,2.34-2.97,3.01s-2.85,.79-4.3,.81c-1.6,.02-3.21,.08-4.8-.11-1.94-.23-3.81-.59-5.7,.12-.45,.17-.25,.9,.2,.72,2.18-.83,4.39-.12,6.63,0,1.62,.09,3.3,.08,4.91-.04,1.31-.1,2.63-.36,3.77-1.04,1.24-.74,2.14-1.89,2.91-3.09,.26-.41-.39-.78-.65-.38h0Z"/>
    </g>
  </g>
</svg>